<?xml version="1.0" encoding="utf-8"?>
<!-- Generator: Adobe Illustrator 24.0.2, SVG Export Plug-In . SVG Version: 6.00 Build 0)  -->
<svg version="1.1" id="Layer_1" xmlns="http://www.w3.org/2000/svg" xmlns:xlink="http://www.w3.org/1999/xlink" x="0px" y="0px"
	 viewBox="0 0 24 24" style="enable-background:new 0 0 24 24;" xml:space="preserve">
<style type="text/css">
	.st0{fill:#FFFFFF;}
</style>
<g>
	<path class="st0" d="M19.5,4.9H6.8C6,4.9,5.4,5.4,5.2,6.1C4.6,6.2,4.2,6.7,4,7.3C3.4,7.4,2.9,8.1,2.9,8.8v8.7
		c0,0.9,0.7,1.6,1.6,1.6h12.8c0.7,0,1.4-0.5,1.5-1.2c0.6-0.1,1-0.6,1.2-1.2c0.7-0.2,1.2-0.8,1.2-1.5V6.5C21.1,5.6,20.4,4.9,19.5,4.9
		z M18,17.5c0,0.4-0.3,0.8-0.7,0.8H4.5c-0.4,0-0.7-0.3-0.7-0.8V9.8H18V17.5z M18.2,9.2H3.5V8.8c0-0.6,0.4-1,1-1h12.8
		c0.5,0,1,0.4,1,1L18.2,9.2L18.2,9.2z M19.1,16.4c0,0.2-0.1,0.5-0.3,0.6V8.8c0-0.9-0.7-1.6-1.6-1.6H5C5.1,7,5.4,6.9,5.6,6.9h12.8
		c0.4,0,0.7,0.3,0.7,0.7V16.4L19.1,16.4z M20.3,15.2c0,0.2-0.1,0.5-0.3,0.6V7.6C20,6.7,19.3,6,18.4,6H6.2c0.1-0.2,0.4-0.3,0.6-0.3
		h12.8c0.4,0,0.7,0.3,0.7,0.8L20.3,15.2z"/>
	<path class="st0" d="M4.9,8.5c0,0.2-0.2,0.4-0.4,0.4C4.2,8.9,4,8.7,4,8.5s0.2-0.4,0.4-0.4C4.7,8.1,4.9,8.3,4.9,8.5z"/>
	<path class="st0" d="M6,8.5c0,0.2-0.2,0.4-0.4,0.4c-0.2,0-0.4-0.2-0.4-0.4s0.2-0.4,0.4-0.4S6,8.3,6,8.5z"/>
	<path class="st0" d="M7.2,8.5c0,0.2-0.2,0.4-0.4,0.4c-0.2,0-0.4-0.2-0.4-0.4s0.2-0.4,0.4-0.4S7.2,8.3,7.2,8.5z"/>
	<path class="st0" d="M14,10.4H7.7c-0.2,0-0.4,0.2-0.4,0.4v4.6c0,0.2,0.2,0.4,0.4,0.4H14c0.2,0,0.4-0.2,0.4-0.4v-4.6
		C14.5,10.6,14.3,10.4,14,10.4z M13.9,15.3H7.8V11h6.1V15.3z"/>
	<path class="st0" d="M11.9,12.4L11.9,12.4l-1.5-1c-0.1-0.1-0.3,0-0.4,0.1c0,0,0,0.1,0,0.2v1.7c0,0.1,0.1,0.2,0.2,0.2
		c0.1,0,0.2,0,0.3,0l1.4-0.9C12,12.7,12,12.6,11.9,12.4z M10.4,13.2V12l0.9,0.6L10.4,13.2z"/>
	<path class="st0" d="M13.2,14.3c0,0.2-0.1,0.3-0.3,0.3h-0.6c0,0.2-0.1,0.3-0.3,0.3s-0.3-0.1-0.3-0.3H8.8c-0.2,0-0.3-0.1-0.3-0.3
		S8.6,14,8.8,14h2.9c0-0.2,0.1-0.3,0.3-0.3s0.3,0.1,0.3,0.3h0.6C13,14,13.2,14.2,13.2,14.3z"/>
	<path class="st0" d="M14.3,16.4c0,0.2-0.1,0.3-0.3,0.3H7.7c-0.2,0-0.3-0.1-0.3-0.3c0-0.2,0.1-0.3,0.3-0.3H14
		C14.2,16.1,14.3,16.2,14.3,16.4z"/>
	<path class="st0" d="M12,17.2c0,0.2-0.1,0.3-0.3,0.3h-4c-0.2,0-0.3-0.1-0.3-0.3c0-0.2,0.1-0.3,0.3-0.3h4.1
		C11.9,16.9,12,17.1,12,17.2z"/>
	<path class="st0" d="M13.2,17.2c0,0.2-0.1,0.3-0.3,0.3h-0.3c-0.2,0-0.3-0.1-0.3-0.3c0-0.2,0.1-0.3,0.3-0.3h0.3
		C13,16.9,13.2,17.1,13.2,17.2z"/>
</g>
</svg>
