<svg enable-background="new 0 0 24 24" viewBox="0 0 24 24" xmlns="http://www.w3.org/2000/svg"><path d="m19.44975 9.99017v-5.43992c-.00055-.51406-.41716-.93067-.93122-.93122h-.31039c-.00055-.51406-.41716-.93067-.93122-.93122h-5.27692c-.35797.00116-.69776.15776-.93122.42909-.23346-.27133-.57325-.42792-.93122-.42909h-5.27691c-.51406.00055-.93068.41716-.93122.93122h-.3104c-.51406.00055-.93067.41716-.93121.93122v11.48502c.00055.51406.41716.93067.93122.93122h10.2434v1.55204c.00178 1.54215 1.25151 2.79187 2.79365 2.79365h1.86244c1.54215-.00178 2.79187-1.25151 2.79365-2.79365v-5.89771c-.00207-1.1825-.74781-2.23583-1.86243-2.63065zm-1.24162-5.75031h.31039c.17133.00022.31018.13906.31039.31039v5.29521c-.10305-.01186-.20669-.01797-.31039-.0183h-.31039zm-12.41626-.93122h1.86243v4.08165l-.68888-.86105c-.05886-.07366-.14805-.11655-.24234-.11655s-.18348.04289-.24233.11655l-.68889.86105s0-4.08165.00001-4.08165zm-1.24162.31039c.00022-.17133.13907-.31017.3104-.31039h.31039v4.96649c-.00007.13186.08319.24932.20763.29297.1244.04365.26281.00389.34513-.09912l.99928-1.24903.99928 1.24903c.05886.0737.14805.11658.24234.11655.08235.00007.16133-.03263.21956-.09083.05824-.05824.0909-.13721.09083-.21956v-4.9665h1.86244c.34273.00033.62046.27809.62082.62082v10.12482c-.19439-.12393-.41985-.19043-.65036-.19184h-5.55774zm0 10.86423h5.55777c.34161.01197.61908.27984.64305.62082h-6.20082zm9.31219 1.86244h-10.24341c-.17133-.00022-.31018-.13906-.31039-.31039v-11.48506c.00022-.17133.13906-.31017.31039-.31039h.31039v11.17462c0 .17144.13896.31039.31039.31039h9.62261v.62083zm0-1.24165h-2.47595c.02441-.34135.30254-.60922.64458-.62082h1.83137zm0-1.24161h-1.83137c-.23106.00138-.45706.06806-.65189.19228v-10.12529c.00032-.34273.27809-.62046.62082-.62083h5.27692c.17133.00022.31018.13906.31039.31039v6.20814h-.93122c-1.54215.00178-2.79187 1.25151-2.79365 2.79366zm3.41448-3.41448v4.03527h-2.79366v-1.86244c.00135-1.19945.97338-2.17148 2.17283-2.17283zm3.41444 8.07057c-.00135 1.19945-.97338 2.17148-2.17283 2.17283h-1.86244c-1.19945-.00135-2.17148-.97338-2.17283-2.17283v-3.41448h6.20814v3.41448zm0-4.03527h-2.79366v-4.0353h.62082c1.19945.00135 2.17148.97338 2.17283 2.17283v1.86247z"/></svg>