<svg xmlns="http://www.w3.org/2000/svg" width="48" height="36.522" viewBox="0 0 48 36.522"><g data-name="Group 89"><path data-name="Path 103" d="M46.405 9.966L27.271.619a7.836 7.836 0 00-6.1 0L1.595 9.966A2.358 2.358 0 000 12.05c0 .495.22 1.375 1.595 2.089l1.595.77v8.8a2.694 2.694 0 00-1.7 2.474 2.73 2.73 0 001.644 2.477L.66 36.522h6.928L5.113 28.66a2.664 2.664 0 00-.055-4.948V15.85l2.914 1.43v11.435a.887.887 0 00.165.495 19.969 19.969 0 0015.835 7.313 19.855 19.855 0 0015.78-7.313.887.887 0 00.165-.495V17.333l6.488-3.189A2.358 2.358 0 0048 12.05a2.458 2.458 0 00-1.595-2.084zM38.158 28.44a18.386 18.386 0 01-14.186 6.378A18.386 18.386 0 019.787 28.44V18.05l11.381 5.443a7.415 7.415 0 003.024.6 6.7 6.7 0 003.079-.66L38.158 18.1zm7.478-15.835l-6.6 3.244a.632.632 0 00-.6.33L26.5 21.95a6.1 6.1 0 01-4.619 0L7.2 14.914l16.88-1.979a.856.856 0 00-.165-1.7L4.344 13.54l-1.979-.935a1.109 1.109 0 01-.6-.495c0-.055.11-.275.6-.495l19.574-9.4a5.68 5.68 0 012.254-.44 5.573 5.573 0 012.309.44l19.134 9.345c.495.22.6.44.6.55a1.512 1.512 0 01-.6.495z" fill="#fff"/></g></svg>