<svg xmlns="http://www.w3.org/2000/svg" width="48" height="48.009" viewBox="0 0 48 48.009"><g fill="#fff"><path data-name="Path 122" d="M21.807 23.272a2.065 2.065 0 102.921 0 2.068 2.068 0 00-2.921 0zm1.926.994a.659.659 0 11-.932 0 .66.66 0 01.932.001z"/><path data-name="Path 123" d="M12.564 48.01a2.371 2.371 0 001.743-.644c.142-.142-.249.353 6.022-7.835v.079a.77.77 0 001.2.636l1.626-1.108a.193.193 0 01.219 0l1.625 1.108a.771.771 0 001.2-.636v-1.853l.8 1.672a.771.771 0 001.361.058l.992-1.7a.193.193 0 01.2-.094l1.944.3a.771.771 0 00.814-1.092l-3.391-7.131a2.508 2.508 0 01.955-.817l.764-.376a1.1 1.1 0 00.541-1.373 80.543 80.543 0 016.012-5.086c10.746-8.23 10.028-7.669 10.171-7.811.905-.905.846-2.535-.162-4.605a3.833 3.833 0 00-.431-2.073.703.703 0 00-1.281.58c.436.962.331 1.381.26 1.453l-.012.01c-.852.621-2.849.146-5.207-1.208l.31-.31a.955.955 0 00.008-1.335A11.675 11.675 0 0138.595 3.7c-.433-.959-.329-1.377-.258-1.447a.176.176 0 01.041-.03.7.7 0 00.1-.032c.565-.108 2.429.566 4.6 2.737.23.23.452.467.662.7a.7.7 0 101.049-.928 17.258 17.258 0 00-.722-.768C42.189 2.054 39.842.607 38.303.8 36.229-.206 34.597-.267 33.691.639a2.036 2.036 0 00-.208.244c-8.182 10.682-8.076 10.564-9.094 11.817a.703.703 0 001.091.888c1.043-1.288 1.029-1.288 7.73-10.037a8.349 8.349 0 00.416 1.2 21 21 0 005.815 7.224c-8.733 6.689-10.139 7.7-12.754 9.975a4.4 4.4 0 00-3.244-1.619 26.759 26.759 0 01-1.727-2.435 83.193 83.193 0 001.531-1.681.703.703 0 10-1.053-.933 91.85 91.85 0 01-1.4 1.542 1.1 1.1 0 00-1.373.541l-.376.764a2.519 2.519 0 01-1.372 1.248l-.459.174a1.1 1.1 0 00-.619 1.457 81.22 81.22 0 01-5.787 4.877C.131 34.06.776 33.554.636 33.694c-.858.858-.847 2.394.031 4.327C2.745 42.6 8.932 48.01 12.564 48.01zm11.605-10.035a1.592 1.592 0 00-1.8 0l-.631.43v-4.014a.703.703 0 10-1.406 0v2.826c-7.43 9.7-6.976 9.113-7.017 9.154-.52.52-2.274.192-4.6-1.364l11.614-15.166v1.268a.703.703 0 101.406 0v-2.242a4.433 4.433 0 003.065 0v9.538zm5.6-1.67a1.591 1.591 0 00-1.628.774l-.385.659-1.549-3.257V28.02c.078-.07.151-.14.221-.211l4.1 8.614zm-1.508-7.916l-.927-1.95q.059-.14.107-.283c.668.5 1.36.974 2.068 1.413a4.231 4.231 0 00-1.248.82zm17.991-17.342c.481 1.252.389 1.994.114 2.269-.342.342-1.285.342-2.709-.3zm-6.722-3.57l-.228.223a28.983 28.983 0 01-3.2-2.5l1.03-1.362a11.906 11.906 0 002.398 3.639zm-2.578-5.73l-1.887 2.488-.22-.216c-.451-1.126-.514-2.031-.16-2.385.275-.275 1.017-.367 2.269.114zm.621 6.464a16.577 16.577 0 006.1 3.024l-1.387 1.053a21.342 21.342 0 01-4.711-4.076zm3.027 4.645a12.612 12.612 0 003.845 1.936l-8.111 6.213a82.802 82.802 0 00-6.229 5.28 26.791 26.791 0 01-2.435-1.727 4.425 4.425 0 00-.272-1.364c2.7-2.371 3.977-3.272 13.2-10.337zm-15.21 14a3 3 0 110-4.247 3.006 3.006 0 01.001 4.247zm-7.22-6.166a3.92 3.92 0 002.136-1.942l.126-.255c.439.708.912 1.4 1.413 2.068a4.406 4.406 0 00-2.493 2.139 27.627 27.627 0 01-1.3-1.968zm-16.54 14c.041-.041-.6.455 10.032-7.69 1.953-1.5 3.858-3.1 5.673-4.764.478.744.993 1.467 1.539 2.161a4.4 4.4 0 001.238 3.415L7.575 44.18a22.238 22.238 0 01-1.987-1.768C2.023 38.846.863 35.456 1.63 34.689z"/></g></svg>