<svg enable-background="new 0 0 24 24" viewBox="0 0 24 24" xmlns="http://www.w3.org/2000/svg"><g fill="#fff"><path d="m19.08375 4.43421h-3.78771l-3.03163-1.51582c-.16552-.08278-.36329-.08278-.52885 0l-3.03164 1.51582h-3.78771c-.68999 0-1.25132.56133-1.25132 1.25132v10.66158c0 .68999.56133 1.25135 1.25132 1.25135h4.98374v2.79013h-1.34474c-.20857 0-.37764.16911-.37764.37764s.16907.37764.37764.37764h6.88958c.20853 0 .37764-.16911.37764-.37764s-.16911-.37764-.37764-.37764h-1.34475v-2.79013h4.98374c.68999 0 1.25132-.56133 1.25132-1.25135v-10.66159c-.00004-.68998-.56136-1.25131-1.25135-1.25131zm.49603 11.9129c0 .27353-.22254.49607-.49603.49607h-14.16754c-.27353 0-.49603-.22255-.49603-.49607v-.52137h15.1596zm-6.23505 4.04148h-2.68953v-2.79013h2.68953zm-8.42852-15.1991h2.27714l-.32186.16095c-.20162.1008-.32688.30344-.32688.52885s.12523.42809.32689.52892l1.27866.63931v2.47556c0 .42961.30434.80483.72367.89225 1.03719.2162 2.08171.32428 3.12619.32428s2.089-.10812 3.12619-.32428c.41933-.08739.72364-.46265.72364-.89225v-2.47555l.36801-.18399v2.43152c0 .20857.16911.37764.37764.37764s.37764-.16907.37764-.37764v-2.80916l.1554-.07772c.20162-.10083.32685-.30351.32681-.52889 0-.22541-.12523-.42806-.32685-.52885l-.32186-.16095h2.27714c.27349 0 .49603.22254.49603.49603v9.38493h-15.15963v-9.38493c0-.27348.22251-.49603.49603-.49603zm11.58122.68984-4.49745 2.24871-4.49741-2.24871 4.49741-2.24874zm-7.59203 1.54584 2.83012 1.41506c.08278.04139.1736.06208.26442.06208s.18165-.02069.26443-.06208l2.83012-1.41506v2.09791c0 .07379-.05151.13807-.12251.15287-1.97212.41106-3.97204.41106-5.94412 0-.071-.0148-.12251-.07908-.12251-.15287v-2.09791z"/><path d="m9.37737 12.37462h3.77642c.20853 0 .37764-.16907.37764-.37764s-.16911-.37764-.37764-.37764h-3.77642c-.20857 0-.37764.16907-.37764.37764s.16907.37764.37764.37764z"/><path d="m6.92225 12.37462h.75528c.20857 0 .37764-.16907.37764-.37764s-.16907-.37764-.37764-.37764h-.75528c-.20857 0-.37764.16907-.37764.37764s.16907.37764.37764.37764z"/><path d="m9.37737 14.19221h7.70034c.20853 0 .37764-.16911.37764-.37764s-.16911-.37764-.37764-.37764h-7.70034c-.20857 0-.37764.16911-.37764.37764s.16907.37764.37764.37764z"/><path d="m6.92225 14.19221h.75528c.20857 0 .37764-.16911.37764-.37764s-.16907-.37764-.37764-.37764h-.75528c-.20857 0-.37764.16911-.37764.37764s.16907.37764.37764.37764z"/></g></svg>