<?xml version="1.0" encoding="utf-8"?>
<!-- Generator: Adobe Illustrator 24.0.2, SVG Export Plug-In . SVG Version: 6.00 Build 0)  -->
<svg version="1.1" id="Layer_1" xmlns="http://www.w3.org/2000/svg" xmlns:xlink="http://www.w3.org/1999/xlink" x="0px" y="0px"
	 viewBox="0 0 24 24" style="enable-background:new 0 0 24 24;" xml:space="preserve">
<style type="text/css">
	.st0{fill:#FFFFFF;}
</style>
<g>
	<path class="st0" d="M20.7,6h-1.1V5.2c0-0.2-0.2-0.4-0.4-0.4h-3.8C14.2,4.8,13,5,12,5.6C11,5,9.8,4.8,8.7,4.7H4.9
		c-0.2,0-0.4,0.2-0.4,0.4V6H3.3C3.1,6,2.9,6.2,2.9,6.4v12.4c0,0.2,0.2,0.4,0.4,0.4h17.4c0.2,0,0.4-0.2,0.4-0.4V6.4
		C21.1,6.2,20.9,6,20.7,6z M12.4,6.4c0.9-0.5,1.9-0.8,2.9-0.8h3.4v10.6h-3.4c-1,0-2,0.2-2.9,0.7V6.4z M7.2,5.6h1v5.6L7.9,11
		c-0.1,0-0.2-0.1-0.2-0.1c-0.1,0-0.2,0-0.2,0.1l-0.2,0.2V5.6z M5.3,5.6h1V12c0,0.1,0,0.2,0.1,0.3c0.1,0.1,0.2,0.1,0.3,0.1h0
		c0.1,0,0.2,0,0.2-0.1l0.7-0.5l0.7,0.5c0.2,0.1,0.5,0.1,0.6-0.1C9,12.2,9,12.1,9,12V5.6c0.9,0.1,1.8,0.3,2.5,0.7v10.5
		c-0.9-0.4-1.9-0.7-2.9-0.7H5.3L5.3,5.6z M20.2,18.4H3.8V6.8h0.7v9.8c0,0.2,0.2,0.4,0.4,0.4h3.8c0.9,0,1.8,0.2,2.6,0.6
		c0.1,0.1,0.3,0.1,0.4,0.2c0.2,0.1,0.4,0.2,0.6,0.1l0.5-0.3c0.8-0.4,1.7-0.6,2.6-0.6h3.8c0.2,0,0.4-0.2,0.4-0.4V6.8h0.7V18.4z"/>
	<path class="st0" d="M13.7,9.1h4V10h-4V9.1z"/>
	<path class="st0" d="M13.7,10.3h2.8v0.9h-2.8V10.3z"/>
	<path class="st0" d="M13.7,11.6h4v0.9h-4V11.6z"/>
	<path class="st0" d="M13.7,12.8h2.8v0.9h-2.8V12.8z"/>
	<path class="st0" d="M13.7,14h4v0.9h-4V14z"/>
</g>
</svg>
