<svg xmlns="http://www.w3.org/2000/svg" width="20" height="20" viewBox="0 0 20 20"><path data-name="Icon awesome-twitter-square" d="M17.857 0H2.143A2.143 2.143 0 000 2.143v15.714A2.143 2.143 0 002.143 20h15.714A2.143 2.143 0 0020 17.857V2.143A2.143 2.143 0 0017.857 0zm-2.183 7.089c.009.125.009.254.009.379a8.274 8.274 0 01-8.33 8.33 8.292 8.292 0 01-4.5-1.312 6.168 6.168 0 00.705.036 5.87 5.87 0 003.642-1.25 2.932 2.932 0 01-2.74-2.031 3.156 3.156 0 001.321-.054 2.928 2.928 0 01-2.344-2.875v-.036a2.926 2.926 0 001.321.371 2.922 2.922 0 01-1.3-2.438 2.891 2.891 0 01.4-1.478 8.314 8.314 0 006.036 3.062 2.934 2.934 0 015-2.674 5.737 5.737 0 001.857-.705 2.92 2.92 0 01-1.286 1.612 5.827 5.827 0 001.688-.455 6.163 6.163 0 01-1.479 1.518z" fill="#02b0e7"/></svg>