<svg xmlns="http://www.w3.org/2000/svg" width="48" height="41.487" viewBox="0 0 48 41.487"><g data-name="laurel (1)"><g data-name="Group 137"><g data-name="Group 136"><path data-name="Path 119" d="M33.605 39.568l-.035-.006a.966.966 0 10-.319 1.906l.035.006a.979.979 0 00.161.013.966.966 0 00.158-1.919z" fill="#fff"/></g></g><g data-name="Group 139"><g data-name="Group 138"><path data-name="Path 120" d="M15.54 40.352a.966.966 0 00-1.112-.793l-.035.006a.966.966 0 00.158 1.919.981.981 0 00.161-.013l.035-.006a.966.966 0 00.807-.952.979.979 0 00-.014-.161z" fill="#fff"/></g></g><g data-name="Group 141"><g data-name="Group 140"><path data-name="Path 121" d="M40.5 27.819a4.9 4.9 0 001.667-.3c3.777-1.357 5.71-7.049 5.79-7.291a.937.937 0 00-.809-1.23 10.863 10.863 0 00-7.07 1.409 26.261 26.261 0 00.264-2.723h.045a4.763 4.763 0 003.333-1.262c2.715-2.495 2.471-7.85 2.459-8.077a.937.937 0 00-1.249-.835 10.287 10.287 0 00-5.089 3.487 23.663 23.663 0 00-.345-1.521 4.457 4.457 0 00.784-3.443c-.638-3.412-5.163-5.828-5.355-5.93a.938.938 0 00-1.347.6c-.686 2.768-.467 5.074.654 6.854a6.593 6.593 0 003.531 2.707 26.69 26.69 0 01.7 4.935 16.68 16.68 0 00-5.263-3.827.937.937 0 00-1.188.722c-.643 3.351-.241 6.085 1.2 8.126a7.731 7.731 0 004.333 2.969 40.354 40.354 0 01-1.792 4.18c-.769-3.775-4.751-7.085-4.939-7.239a.938.938 0 00-1.445.329c-1.488 3.191-1.775 6.04-.855 8.467a8.064 8.064 0 002.852 3.665 25 25 0 01-4.267 2.9 5.168 5.168 0 00.469-2.092c0-2.931-2.867-5.181-2.989-5.276a.938.938 0 00-1.147 0c-.122.094-2.989 2.345-2.989 5.275a5.168 5.168 0 00.469 2.092 25 25 0 01-4.267-2.9 8.064 8.064 0 002.852-3.666c.92-2.427.632-5.275-.855-8.467a.938.938 0 00-1.445-.329c-.188.154-4.17 3.463-4.939 7.239a40.365 40.365 0 01-1.792-4.18 7.731 7.731 0 004.333-2.969c1.437-2.041 1.84-4.775 1.2-8.126a.937.937 0 00-1.188-.722 16.681 16.681 0 00-5.271 3.838 26.685 26.685 0 01.7-4.935 6.594 6.594 0 003.533-2.711c1.12-1.781 1.34-4.087.654-6.854a.938.938 0 00-1.347-.6c-.192.1-4.717 2.518-5.355 5.93a4.457 4.457 0 00.784 3.443c-.1.362-.22.879-.345 1.521a10.287 10.287 0 00-5.089-3.487.937.937 0 00-1.249.835c-.012.227-.256 5.582 2.459 8.077a4.762 4.762 0 003.333 1.262h.045a26.262 26.262 0 00.264 2.723 10.861 10.861 0 00-7.07-1.41.937.937 0 00-.809 1.23c.08.242 2.014 5.934 5.79 7.291a4.9 4.9 0 001.667.3 5.509 5.509 0 002.517-.647c.254.511 1.531 2.608 1.912 3.125-2.162-.309-4.968.12-8.447 2.232a.937.937 0 00-.187 1.452c.2.209 4.826 4.888 9.392 4.888a6.356 6.356 0 00.686-.037 6.19 6.19 0 004.554-2.938 30.008 30.008 0 003.543 1.993q-1.6.527-3.34.955a.938.938 0 10.447 1.821A44.049 44.049 0 0024 38.98a44.054 44.054 0 005.415 1.688.938.938 0 10.447-1.821q-1.742-.428-3.34-.955a30 30 0 003.543-1.993 6.19 6.19 0 004.554 2.938 6.357 6.357 0 00.686.037c4.566 0 9.188-4.679 9.392-4.888a.937.937 0 00-.184-1.456c-3.479-2.112-6.285-2.541-8.447-2.232.381-.517 1.658-2.614 1.912-3.125a5.508 5.508 0 002.522.646zm3.786-18.011c-.112 1.671-.55 4.061-1.836 5.24a2.927 2.927 0 01-2.059.765c-.157-1.245-.024-4.121 3.89-6.005zM40.3 22.632a7.978 7.978 0 015.37-1.821h.039c-.775 1.73-2.266 4.259-4.181 4.947a3.276 3.276 0 01-2.709-.263 6.73 6.73 0 011.481-2.863zM38 8.345l-.021.011a4.678 4.678 0 01-2.159-1.788 6.056 6.056 0 01-.67-4.125c1.295.89 3 2.377 3.288 3.942A2.6 2.6 0 0138 8.345zM7.615 15.813a2.927 2.927 0 01-2.059-.765c-1.286-1.179-1.724-3.569-1.836-5.24 3.916 1.885 4.047 4.764 3.895 6.005zm-1.14 9.949c-1.91-.684-3.4-3.217-4.182-4.948h.037a7.346 7.346 0 015.37 1.818 5.262 5.262 0 011.191 1.808c.047.139.265.884.29 1.055a3.276 3.276 0 01-2.706.267zM9.567 6.385c.291-1.565 1.994-3.052 3.288-3.942a6.075 6.075 0 01-.655 4.1 4.678 4.678 0 01-2.179 1.819l-.012-.007a2.606 2.606 0 01-.442-1.97zm.22 12.177c.4-2.068 2.893-3.86 4.555-4.844a7.785 7.785 0 01-1.064 5.4 5.851 5.851 0 01-2.961 2.161 4.165 4.165 0 01-.53-2.717zm3.4 18.409c-2.839.308-6.083-2.123-7.627-3.459a9.74 9.74 0 017.275-1.087 7.554 7.554 0 013.418 2.615 4.263 4.263 0 01-3.071 1.933zm2.054-5.7A4.256 4.256 0 0114 28.647c-.081-2.386 2.142-4.908 3.44-6.2a8.215 8.215 0 01.308 5.784 6.293 6.293 0 01-2.512 3.045zM24 36.67a5.162 5.162 0 01-1.689-3.268A5.132 5.132 0 0124 30.133a5.132 5.132 0 011.688 3.269A5.13 5.13 0 0124 36.67zm6.25-8.437a8.215 8.215 0 01.308-5.784c1.3 1.289 3.474 3.811 3.44 6.2a3.494 3.494 0 01-1 2.391l-.118.123q-.057.058-.117.114a6.291 6.291 0 01-2.511-3.044zm12.2 5.284c-1.761 1.523-4.972 3.744-7.631 3.456a4.262 4.262 0 01-3.069-1.932 9.208 9.208 0 013.418-2.615c2.115-.686 4.554-.334 7.285 1.091zm-7.711-14.378a7.765 7.765 0 01-1.08-5.42c1.662.983 4.036 2.8 4.555 4.844a4.553 4.553 0 01-.532 2.717 5.8 5.8 0 01-2.943-2.141z" fill="#fff"/></g></g></g></svg>