<svg xmlns="http://www.w3.org/2000/svg" width="20" height="20" viewBox="0 0 20 20"><path data-name="Icon awesome-youtube-square" d="M8.339 7.594l4.25 2.415-4.25 2.415zM20 2.143v15.714A2.143 2.143 0 0117.857 20H2.143A2.143 2.143 0 010 17.857V2.143A2.143 2.143 0 012.143 0h15.714A2.143 2.143 0 0120 2.143zm-1.875 7.871a21.451 21.451 0 00-.339-3.937 2.038 2.038 0 00-1.437-1.446A47.939 47.939 0 0010 4.286a47.939 47.939 0 00-6.348.344 2.038 2.038 0 00-1.438 1.446 21.425 21.425 0 00-.339 3.937 21.451 21.451 0 00.339 3.937 2.008 2.008 0 001.438 1.424 48.564 48.564 0 006.348.34 47.939 47.939 0 006.348-.344 2.008 2.008 0 001.438-1.42 21.385 21.385 0 00.339-3.933z" fill="#ed4343"/></svg>