<svg xmlns="http://www.w3.org/2000/svg" width="20" height="20" viewBox="0 0 20 20"><path data-name="Icon awesome-linkedin" d="M18.571 0H1.424A1.435 1.435 0 000 1.442v17.116A1.435 1.435 0 001.424 20h17.147A1.439 1.439 0 0020 18.558V1.442A1.439 1.439 0 0018.571 0zM6.045 17.143H3.08V7.598h2.969v9.545zM4.563 6.295a1.719 1.719 0 111.718-1.719 1.719 1.719 0 01-1.718 1.719zm12.593 10.848h-2.964V12.5c0-1.107-.022-2.531-1.54-2.531-1.545 0-1.781 1.205-1.781 2.451v4.723H7.906V7.598h2.844v1.3h.04a3.122 3.122 0 012.81-1.536c3 0 3.558 1.978 3.558 4.549z" fill="#2a6fdb"/></svg>