<svg xmlns="http://www.w3.org/2000/svg" width="48.806" height="48.781" viewBox="0 0 48.806 48.781"><path d="M47.988 10.503a1.406 1.406 0 00-.433-2.284l-4.74-2.062-1.663-4.8A1.406 1.406 0 0038.828.82l-2.681 2.681A24.6 24.6 0 0024.384.414 23.983 23.983 0 007.425 41.357a23.985 23.985 0 0038.064-28.355zm-9.849 5.872l-2.906-.78L42 8.866l2.538 1.1zm-.53 8.023a13.226 13.226 0 11-13.225-13.226 12.329 12.329 0 015.859 1.358l.725 3.338-1.783 1.771a8.3 8.3 0 101.983 1.994l1.758-1.746 3.458.928a12.3 12.3 0 011.226 5.583zm-7.745 0a5.489 5.489 0 11-2.72-4.732l-3.8 3.776a1.408 1.408 0 001.982 2l3.8-3.778a5.446 5.446 0 01.736 2.739zm9.363-20l.843 2.428-6.735 6.69-.576-2.65zm6.326 20a21.171 21.171 0 01-36.14 14.968A21.171 21.171 0 0124.384 3.227a21.7 21.7 0 019.683 2.354L30.228 9.42l-.011.011a15.53 15.53 0 00-5.834-1.072 16.038 16.038 0 1016.039 16.039 15.372 15.372 0 00-.913-5.421l.044-.04 3.847-3.848a21.161 21.161 0 012.155 9.309z" stroke="#fff" stroke-width=".8"/></svg>