<svg xmlns="http://www.w3.org/2000/svg" width="52.319" height="50.822" viewBox="0 0 52.319 50.822"><path d="M34.128 39.688l-4 3.869.938 5.431-4.909-2.562-4.909 2.562.938-5.431-4-3.869 5.522-.8 2.446-4.921 2.446 4.921zm16.031.012l-5.522-.8-2.444-4.918-2.449 4.919-5.522.8 4 3.869-.941 5.431 4.912-2.563 4.907 2.563-.938-5.431zm-37.585-.851l-2.446-4.924-2.447 4.925-5.522.8 4 3.872-.938 5.435 4.909-2.564 4.909 2.564-.938-5.435 4-3.872zm.33-7.158l-3.611-1.024a17.7 17.7 0 0110.169-11.445 10.312 10.312 0 1113.329-.1 17.7 17.7 0 0110.388 11.44l-3.6 1.047a13.882 13.882 0 00-26.674.083zm6.6-20.382a6.563 6.563 0 106.562-6.561 6.569 6.569 0 00-6.563 6.562z" fill="#fff" stroke="#40c4ff" stroke-width="2"/></svg>