<svg xmlns="http://www.w3.org/2000/svg" width="48.8" height="48.8" viewBox="0 0 48.8 48.8"><g transform="translate(.4 .4)" stroke="#fff" stroke-width=".8"><path data-name="Path 125" d="M46.594 45.187h-6.188V31.406a2.816 2.816 0 00-2.812-2.812H35.5a12.2 12.2 0 00-3.212-6.018 10.047 10.047 0 00-3.4-2.223 13.985 13.985 0 004.5-10.071c0-3.327-.925-5.938-2.751-7.761A9.14 9.14 0 0024 0a9.14 9.14 0 00-6.638 2.52c-1.825 1.823-2.751 4.434-2.751 7.761a13.985 13.985 0 004.5 10.071 10.048 10.048 0 00-3.4 2.223 12.2 12.2 0 00-3.211 6.019h-2.094a2.816 2.816 0 00-2.812 2.813v13.78H1.406a1.407 1.407 0 000 2.813h45.188a1.406 1.406 0 100-2.812zM24 2.812c2.065 0 5.307.687 6.287 4.768a8.194 8.194 0 01-2.892-.9 3.192 3.192 0 00-2.208-.464 4.23 4.23 0 00-1.7.944c-.888.7-2.185 1.722-6.015 1.929C17.951 3.662 21.7 2.812 24 2.812zM17.565 11.9c4.776-.252 6.56-1.659 7.667-2.533A6.21 6.21 0 0125.726 9c.113.048.279.13.421.2a11.1 11.1 0 004.426 1.239 11.52 11.52 0 01-2.079 6.177C27.2 18.46 25.558 19.519 24 19.519s-3.2-1.059-4.494-2.906a11.822 11.822 0 01-1.941-4.713zm5.685 10.506h1.5c3.9 0 6.749 2.282 7.854 6.187H15.4c1.1-3.905 3.947-6.187 7.85-6.187zM10.406 45.187V31.406h27.188v13.781z"/><ellipse data-name="Ellipse 26" cx="1.5" cy="1" rx="1.5" ry="1" transform="translate(22.367 36.693)"/></g></svg>