<svg enable-background="new 0 0 15.1 15.103" viewBox="0 0 15.1 15.103" xmlns="http://www.w3.org/2000/svg"><g fill="#f93e5f"><path d="m7.07001 2.99002c-3.71002 0-4.06.06995-4.06 4.56 0 4.42999.13 4.54999 4.56 4.54999 2.42999 0 4.39996.28998 4.52002-2.31.33996-7.33002-.27002-6.81-5.02002-6.79999zm.5 7.41999c-1.58002 0-2.85999-1.28003-2.85999-2.85999 0-1.58002 1.27997-2.85004 2.85999-2.85004s2.85999 1.28003 2.84998 2.85999c-.00001 1.57001-1.27998 2.85004-2.84998 2.85004zm2.96997-5.16004c-.37 0-.66998-.29999-.66998-.66998s.29999-.65997.66998-.65997.66003.29998.66003.65997c0 .36999-.29004.66998-.66003.66998zm-2.96997.45001c-.96002.04004-1.73999.81-1.78003 1.78003v.07001c0 .98999.78003 1.81 1.78003 1.84998 1.02002 0 1.84998-.83002 1.84998-1.84998-.00001-1.02002-.82996-1.85004-1.84998-1.85004z"/><path d="m15.09003 3.29001c-.01001-1.63-1.23004-3-2.84003-3.20001-.73999-.08002-1.47998-.09998-2.22998-.07001-6.38001.01001-7.78003-.27997-9.03003 1.03003-1.19 1.22998-.95001 2.52997-.95001 6.5 0 3.28998-.56995 6.59998 2.44 7.37 3.39001.23999 6.80005.23999 10.20001 0 1.41003-.37 2.40002-1.65002 2.41003-3.11005.01997-.25.01997-8.26996.00001-8.51996zm-2.25 7.90997c-.84003 2.14002-3.09003 1.92005-5.27002 1.92005-2.26001 0-4.44.19995-5.27002-1.92004-.28998-1.19-.38-2.41998-.28998-3.64001-.10999-1.22999-.01001-2.45997.28998-3.64997.83002-2.12 2.98999-1.91998 5.27002-1.91998v.00995c2.12 0 3.57001-.12 4.62.93005 1.06 1.04999.94 2.44995.94 4.62994.10998 1.22003.01 2.45001-.28998 3.64001z"/></g></svg>