<svg xmlns="http://www.w3.org/2000/svg" width="25.954" height="26.002" viewBox="0 0 25.954 26.002"><path d="M24.953 18.968v3.613a2.409 2.409 0 01-2.625 2.409 23.834 23.834 0 01-10.393-3.7 23.484 23.484 0 01-7.226-7.226 23.834 23.834 0 01-3.7-10.441A2.409 2.409 0 013.407 1H7.02a2.409 2.409 0 012.413 2.071 15.463 15.463 0 00.843 3.384A2.409 2.409 0 019.733 9l-1.529 1.529a19.269 19.269 0 007.226 7.226l1.529-1.529a2.409 2.409 0 012.541-.542 15.463 15.463 0 003.384.843 2.409 2.409 0 012.071 2.445z" fill="none" stroke="#989898" stroke-linecap="round" stroke-linejoin="round" stroke-width="2"/></svg>
