<svg enable-background="new 0 0 30 30" viewBox="0 0 30 30" xmlns="http://www.w3.org/2000/svg"><g transform="translate(-.459)"><circle cx="15.459" cy="15.00009" fill="#d5e6ff" r="15"/><path d="m17.216 7.28909h-3.334c-3.22148 0-5.833 2.61152-5.833 5.833v2.5c-.00112 2.254 1.29651 4.30694 3.333 5.273v2.785c.00028.15409.12542.27877.27951.27849.07222-.00013.14158-.02827.19349-.07849l2.421-2.421h2.94c3.22148 0 5.833-2.61152 5.833-5.833 0-.00133 0-.00267 0-.004v-2.5c0-3.22148-2.61152-5.833-5.833-5.833zm2.183 10.93299-.833.833c-.888.869-3.2-.123-5.246-2.208s-2.937-4.425-2.083-5.294l.833-.833c.33862-.30357.85312-.29792 1.185.013l1.217 1.25c.31469.3249.30642.8434-.01849 1.15809-.0891.0863-.19665.15124-.31451.18991-.40494.12622-.64098.54654-.538.958.37017 1.06842 1.19829 1.9156 2.258 2.31.40826.09741.82524-.12414.973-.517.14873-.426.61464-.65077 1.04064-.50204.12336.04307.2346.1151.32436.21004l1.215 1.25c.30268.33782.29704.85093-.013 1.182zm-3.092-6.97499c-.0829-.00026-.16574.00475-.248.015-.15329.00864-.28456-.10862-.29321-.26191-.00801-.14214.09266-.26737.2332-.29008.10223-.01191.20508-.01759.308-.017 1.53513-.00111 2.78079 1.24188 2.783 2.777.00055.10292-.00512.20577-.017.308-.00864.15329-.13992.27055-.29321.26191s-.27055-.13992-.26191-.29321c.00054-.00962.00158-.0192.00312-.02871.00924-.08236.01425-.16513.015-.248-.0022-1.22916-.99983-2.22411-2.22899-2.223zm1.667 2.223c-.01303.15353-.14807.26743-.3016.2544-.13545-.0115-.2429-.11895-.2544-.2544 0-.61304-.49696-1.11-1.11-1.11-.15353.01303-.28857-.10086-.3016-.2544-.01303-.15353.10086-.28857.2544-.3016.01571-.00134.0315-.00134.0472 0 .91988.00055 1.66545.74612 1.666 1.666zm2.119.9c-.02731.15165-.17237.25245-.32402.22515-.15165-.02731-.25245-.17238-.22514-.32402.00183-.01017.00422-.02023.00717-.03012.06028-.25188.09049-.51001.09-.769 0-1.84077-1.49223-3.333-3.333-3.333h-.259c-.15254.01747-.29036-.09202-.30783-.24456-.01747-.15253.09202-.29036.24456-.30783.00706-.00081.01416-.00135.02127-.00161.1-.00867.2-.013.3-.013 2.15001.00551 3.89001 1.74999 3.89 3.9.00002.303-.03488.60499-.104.9v-.00201z" fill="#665cac"/></g></svg>