<svg width="36" height="36" viewBox="0 0 36 36" fill="none" xmlns="http://www.w3.org/2000/svg">
<mask id="mask0_1187_12309" style="mask-type:luminance" maskUnits="userSpaceOnUse" x="0" y="0" width="36" height="36">
<path d="M32 0H4C1.79086 0 0 1.79086 0 4V32C0 34.2091 1.79086 36 4 36H32C34.2091 36 36 34.2091 36 32V4C36 1.79086 34.2091 0 32 0Z" fill="white"/>
</mask>
<g mask="url(#mask0_1187_12309)">
<path d="M32 0H4C1.79086 0 0 1.79086 0 4V32C0 34.2091 1.79086 36 4 36H32C34.2091 36 36 34.2091 36 32V4C36 1.79086 34.2091 0 32 0Z" fill="white"/>
<g clip-path="url(#clip0_1187_12309)">
<path d="M19.2045 17.3815L27.3045 28.9697H23.9797L17.3685 19.5145L16.3978 18.126L8.67578 7.0791H12.0006L18.2325 15.9943L19.2045 17.3815Z" fill="black"/>
<path d="M32.1107 0H3.88929C2.85789 0.000340789 1.86883 0.410213 1.13952 1.13952C0.410213 1.86883 0.000340789 2.85789 0 3.88929L0 32.1107C0.000340789 33.1421 0.410213 34.1312 1.13952 34.8605C1.86883 35.5898 2.85789 35.9997 3.88929 36H32.1107C33.1421 35.9997 34.1312 35.5898 34.8605 34.8605C35.5898 34.1312 35.9997 33.1421 36 32.1107V3.88929C35.9997 2.85789 35.5898 1.86883 34.8605 1.13952C34.1312 0.410213 33.1421 0.000340789 32.1107 0ZM22.9616 30.5293L16.2759 20.7926L7.89686 30.5293H5.73171L15.3103 19.395L5.73171 5.45271H13.0384L19.3731 14.6726L27.3047 5.45271H29.4686L20.34 16.0714L30.2747 30.5293H22.9616Z" fill="black"/>
</g>
</g>
<defs>
<clipPath id="clip0_1187_12309">
<rect width="36" height="36" fill="white"/>
</clipPath>
</defs>
</svg>